# xmcd
#
# Track frame offsets: 
#        150
#        26792
#        47485
#        67305
#        90902
#        120497
#        136075
#        158505
#
# Disc length: 2359 seconds
#
# Revision: 1
# Processed by: cddbd v1.5.2PL0 Copyright (c) Steve Scherf et al.
# Submitted via: ExactAudioCopyFreeDBPlugin 1.0
#
DISCID=5d093508
DTITLE=Aurra - Send Your Love
DYEAR=1981
DGENRE=Funk
TTITLE0=Nasty Disposition
TTITLE1=Send Your Love
TTITLE2=Kingston Lady
TTITLE3=Forever
TTITLE4=Are You Single
TTITLE5=Keep Doin't It
TTITLE6=Living Too Fast
TTITLE7=Party Time
EXTD=YEAR: 1981
EXTT0=
EXTT1=
EXTT2=
EXTT3=
EXTT4=
EXTT5=
EXTT6=
EXTT7=
PLAYORDER=
